<svg xmlns="http://www.w3.org/2000/svg" xmlns:xlink="http://www.w3.org/1999/xlink" width="438" height="409" viewBox="0 0 438 409">
    <defs>
        <path id="a" d="M17.617 19.767L.117 50.113H9.6l34.442-26.66L28.788.53z"/>
        <path id="c" d="M.796.676h63.48v7.682H.795z"/>
        <path id="e" d="M3.538 33.57l12.78-22.131L.66.288z"/>
        <path id="g" d="M.86 36.774h43.991L48.004.247z"/>
        <path id="i" d="M17.547 19.57L.045 49.915H9.53l34.443-26.66L28.718.332z"/>
        <path id="k" d="M.119.03h21.344v21.523H.12z"/>
        <path id="l" d="M0 .66h36.874v38.313H0z"/>
        <path id="n" d="M0 0h54.597v73.67H.001z"/>
    </defs>
    <g fill="none" fill-rule="evenodd">
        <g fill-rule="nonzero" transform="translate(31 13)">
            <g stroke="#90B8E5" stroke-width="1.732" opacity=".4">
                <ellipse cx="190.409" cy="189.892" rx="70.433" ry="189.026"/>
                <ellipse cx="190.129" cy="189.613" rx="70.344" ry="189.263" transform="rotate(90 190.13 189.613)"/>
                <ellipse cx="189.89" cy="189.095" rx="70.388" ry="189.145" transform="rotate(45 189.89 189.095)"/>
                <ellipse cx="190.45" cy="189.095" rx="70.388" ry="189.145" transform="rotate(-45 190.45 189.095)"/>
            </g>
            <ellipse cx="324.064" cy="260.038" fill="#ACC4FF" rx="6.3" ry="6.297"/>
            <ellipse cx="330.364" cy="143.095" fill="#ACC4FF" rx="6.3" ry="6.297"/>
            <ellipse cx="123.364" cy="123.304" fill="#ACC4FF" rx="6.3" ry="6.297"/>
            <ellipse cx="234.964" cy="45.042" fill="#ACC4FF" rx="6.3" ry="6.297"/>
            <ellipse cx="155.764" cy="305.916" fill="#ACC4FF" rx="6.3" ry="6.297"/>
            <ellipse cx="63.064" cy="241.147" fill="#ACC4FF" rx="6.3" ry="6.297"/>
        </g>
        <g transform="translate(225.195 146.976)">
            <mask id="b" fill="#fff">
                <use xlink:href="#a"/>
            </mask>
            <path fill="#DC9D3B" d="M-.187 50.418h44.531V.224H-.186z" mask="url(#b)"/>
        </g>
        <path fill="#FBEE3D" d="M220.676 206.245h63.48v-7.682h-63.48z"/>
        <g transform="translate(219.88 197.887)">
            <mask id="d" fill="#fff">
                <use xlink:href="#c"/>
            </mask>
            <path fill="#FBEE3D" d="M.493 8.662h64.084V.372H.493z" mask="url(#d)"/>
        </g>
        <path fill="#FBEE3D" d="M233.541 168.24l-15.658-11.152 2.878 33.283z"/>
        <g transform="translate(217.223 156.8)">
            <mask id="f" fill="#fff">
                <use xlink:href="#e"/>
            </mask>
            <path fill="#FBEE3D" d="M.358 33.875H16.62V-.02H.358z" mask="url(#f)"/>
        </g>
        <path fill="#FBEE3D" d="M240.227 194.468h43.992l3.153-36.528z"/>
        <g transform="translate(239.368 157.694)">
            <mask id="h" fill="#fff">
                <use xlink:href="#g"/>
            </mask>
            <path fill="#FBEE3D" d="M.557 37.079h47.748V-.057H.557z" mask="url(#h)"/>
        </g>
        <path fill="#FBEE3D" d="M267.397 167.552l-34.443 26.66h-9.485l17.501-30.347 11.171-19.237z"/>
        <g transform="translate(223.423 144.296)">
            <mask id="j" fill="#fff">
                <use xlink:href="#i"/>
            </mask>
            <path fill="#FBEE3D" d="M-.257 50.22h44.531V.026H-.256z" mask="url(#j)"/>
        </g>
        <path fill="#FBEC27" d="M220.62 119.43c45.498 0 82.346 37.155 82.346 82.918 0 45.878-36.848 83.032-82.346 83.032-45.386 0-82.234-37.154-82.234-83.032 0-45.763 36.848-82.919 82.234-82.919"/>
        <path fill="#FBBA2D" d="M220.62 122.261c43.926 0 79.538 35.91 79.538 80.087 0 44.292-35.612 80.2-79.538 80.2-43.814 0-79.426-35.908-79.426-80.2 0-44.178 35.612-80.087 79.426-80.087"/>
        <path fill="#FBCE37" d="M220.62 122.261c15.615 0 29.994 4.532 42.24 12.234-25.053-1.925-69.314 3.738-106.05 56.752-8.988 13.027-10.897 28.66-7.864 45.538a80.146 80.146 0 0 1-7.752-34.437c0-44.178 35.612-80.087 79.426-80.087"/>
        <path fill="#FBEE3D" d="M220.62 137.101c35.836 0 64.82 29.226 64.82 65.247 0 36.136-28.984 65.362-64.82 65.362-35.725 0-64.71-29.226-64.71-65.362 0-36.021 28.985-65.247 64.71-65.247"/>
        <path fill="#FBBA2D" d="M220.62 143.444c32.353 0 58.417 26.394 58.417 58.904 0 32.624-26.064 58.904-58.417 58.904-32.242 0-58.417-26.28-58.417-58.904 0-32.51 26.175-58.904 58.417-58.904"/>
        <path fill="#FBCE37" d="M256.906 156.244c13.481 10.762 22.131 27.413 22.131 46.104 0 32.624-26.063 58.904-58.417 58.904-14.717 0-28.198-5.436-38.421-14.5 99.086-2.605 76.841-83.371 74.707-90.508"/>
        <path fill="#DC9D3B" d="M221.406 144.124c33.365 0 60.327 27.3 60.327 60.829 0 33.644-26.962 60.83-60.327 60.83-33.253 0-60.215-27.186-60.215-60.83 0-33.53 26.962-60.83 60.215-60.83m-.786-5.89c35.163 0 63.697 28.773 63.697 64.115 0 35.456-28.534 64.228-63.697 64.228-35.05 0-63.585-28.772-63.585-64.228 0-35.342 28.534-64.115 63.585-64.115"/>
        <path fill="#FEFEFE" d="M250.627 261c0 5.903-4.774 10.716-10.627 10.716 5.853 0 10.627 4.814 10.627 10.807 0-5.993 4.863-10.807 10.717-10.807-5.854 0-10.717-4.813-10.717-10.716M155.257 220c0 7.476-5.954 13.48-13.257 13.48 7.303 0 13.257 6.003 13.257 13.367 0-7.364 5.954-13.367 13.369-13.367-7.415 0-13.369-6.004-13.369-13.48"/>
        <g transform="translate(248.582 136.75)">
            <mask id="m" fill="#fff">
                <use xlink:href="#l"/>
            </mask>
            <path fill="#FEFEFE" d="M18.36.66c0 10.508-8.248 19.077-18.36 19.077 10.112 0 18.36 8.568 18.36 19.236 0-10.668 8.4-19.236 18.514-19.236-10.113 0-18.515-8.569-18.515-19.076" mask="url(#m)"/>
        </g>
        <g transform="translate(194.88 165.361)">
            <path fill="#DC9D3B" d="M41.503 54.82c-1.012 1.136-2.314 1.853-3.923 2.145-1.046.218-1.913.328-5.806.328h-9.196v-14.35h7.921c4.91 0 6.508.264 7.976.768 1.469.514 2.596 1.332 3.37 2.457.785 1.12 1.177 2.488 1.177 4.102 0 1.897-.513 3.42-1.519 4.55zm-13.52-33.208c5.08 0 6.558.06 7.626.181 1.8.217 3.158.848 4.073 1.887.906 1.03 1.363 2.382 1.363 4.037 0 1.736-.528 3.138-1.585 4.193-1.056 1.064-2.514 1.704-4.36 1.922-1.023.121-2.036.187-6.243.187h-6.28V21.612h5.405zm25.169 21.08c-1.75-2.29-4.256-3.92-7.514-4.87 2.313-1.049 4.143-2.628 5.492-4.721 1.347-2.095 2.022-4.406 2.022-6.917 0-2.317-.543-4.41-1.64-6.278-1.097-1.867-2.464-3.36-4.104-4.48-1.639-1.125-3.5-1.862-5.583-2.214-1.483-.253-3.54-.41-6.115-.48V2.378h-8.103v10.304h-5.27V2.378h-8v10.304H1.185v8.93h5.3a3.7 3.7 0 0 1 3.694 3.706v28.375a3.7 3.7 0 0 1-3.694 3.706h-5.3v8.931h13.152v9.717h8V66.33h5.27v9.717h8.103v-9.804c3.128-.065 5.371-.155 6.498-.277 2.867-.318 5.285-1.161 7.242-2.542 1.962-1.378 3.5-3.225 4.638-5.526 1.125-2.31 1.694-4.682 1.694-7.118 0-3.098-.88-5.797-2.63-8.088z"/>
            <mask id="o" fill="#fff">
                <use xlink:href="#n"/>
            </mask>
            <path fill="#FBEE3D" d="M40.319 52.443c-1.012 1.135-2.314 1.852-3.924 2.145-1.045.217-1.912.328-5.805.328h-9.197v-14.35h7.922c4.91 0 6.508.263 7.976.767 1.468.515 2.595 1.333 3.37 2.457.785 1.12 1.177 2.488 1.177 4.102 0 1.898-.513 3.42-1.52 4.551zm-13.52-33.209c5.08 0 6.558.06 7.626.182 1.8.216 3.158.847 4.073 1.886.906 1.03 1.362 2.383 1.362 4.037 0 1.736-.527 3.139-1.584 4.193-1.056 1.064-2.515 1.705-4.36 1.922-1.024.122-2.037.187-6.243.187h-6.28V19.234h5.405zm25.168 21.08c-1.75-2.29-4.255-3.92-7.514-4.869 2.313-1.05 4.144-2.628 5.493-4.722 1.347-2.094 2.021-4.405 2.021-6.917 0-2.317-.542-4.41-1.64-6.278-1.096-1.866-2.463-3.36-4.103-4.48-1.64-1.125-3.5-1.862-5.583-2.214-1.483-.253-3.54-.409-6.116-.48V0h-8.103v10.304h-5.27V0h-8v10.304H.002v8.93h5.3a3.7 3.7 0 0 1 3.694 3.706v28.375A3.7 3.7 0 0 1 5.3 55.02h-5.3v8.932h13.152v9.716h8v-9.716h5.27v9.716h8.102v-9.803c3.129-.066 5.372-.156 6.499-.277 2.866-.319 5.285-1.162 7.241-2.543 1.963-1.378 3.5-3.225 4.638-5.525 1.126-2.31 1.695-4.683 1.695-7.119 0-3.097-.88-5.797-2.63-8.088z" mask="url(#o)"/>
        </g>
        <g>
            <g fill-rule="nonzero">
                <path fill="#C078FF" d="M47 318.232h60.083v35.75H47z"/>
                <path fill="#FBFBEF" d="M98.789 351.215H55.177c0-3.02-2.453-5.492-5.451-5.492v-19.221c2.998 0 5.451-2.472 5.451-5.492H98.79c0 3.02 2.453 5.492 5.451 5.492v19.221c-2.998 0-5.451 2.472-5.451 5.492z"/>
                <g transform="translate(57.892 325.547)">
                    <ellipse cx="18.541" cy="10.619" fill="#C078FF" rx="10.541" ry="10.619"/>
                    <path fill="#FFF" d="M12.987 15.081h1.924v1.634a.262.262 0 0 0 .275.272h1.434a.273.273 0 0 0 .275-.272V15.08h4.338c.08 0 .146-.025.197-.076a.263.263 0 0 0 .078-.196v-1.09a.263.263 0 0 0-.275-.272h-4.338v-1.004h2.92c1.145 0 2.08-.345 2.805-1.037.724-.692 1.086-1.585 1.086-2.68 0-1.095-.362-1.988-1.086-2.68-.725-.692-1.66-1.038-2.805-1.038h-4.63a.27.27 0 0 0-.197.076.265.265 0 0 0-.077.196v5.351h-1.924a.268.268 0 0 0-.275.272v1.268a.263.263 0 0 0 .275.272h1.924v1.004h-1.924a.263.263 0 0 0-.275.272v1.09a.263.263 0 0 0 .275.272zm3.908-8.261h2.749c.606 0 1.096.176 1.468.527.372.352.559.812.559 1.379s-.187 1.027-.559 1.378c-.372.352-.862.528-1.468.528h-2.749V6.82z"/>
                    <ellipse cx="2.736" cy="10.565" fill="#DDDDCD" rx="2.726" ry="2.746"/>
                    <ellipse cx="35.445" cy="10.565" fill="#DDDDCD" rx="2.726" ry="2.746"/>
                </g>
            </g>
            <g fill-rule="nonzero">
                <path fill="#7CB3E4" d="M377 187.232h60.083v35.75H377z"/>
                <path fill="#FBFBEF" d="M428.789 220.215h-43.612c0-3.02-2.453-5.492-5.451-5.492v-19.221c2.998 0 5.451-2.472 5.451-5.492h43.612c0 3.02 2.453 5.492 5.451 5.492v19.221c-2.998 0-5.451 2.472-5.451 5.492z"/>
                <g transform="translate(387.892 194.547)">
                    <ellipse cx="18.541" cy="10.619" fill="#7CB3E4" rx="10.541" ry="10.619"/>
                    <path fill="#FFF" d="M21.057 11.55c1.091-.931 1.518-1.833 1.518-3.194 0-.962-.351-1.8-.988-2.359C20.821 5.307 19.746 5 18.1 5l-2.828.01a.273.273 0 0 0-.272.27v11.436c0 .15.122.272.273.272h1.473c.15 0 .273-.122.273-.272v-4.65h2.183l1.726 4.743c.038.107.142.18.256.18h1.524a.273.273 0 0 0 .256-.368l-1.907-5.072zm-.502-3.025c0 1.145-.903 1.886-2.301 1.886h-1.235V6.674l1.183-.002c1.562.018 2.353.64 2.353 1.853z"/>
                    <ellipse cx="2.736" cy="10.565" fill="#DDDDCD" rx="2.726" ry="2.746"/>
                    <ellipse cx="35.445" cy="10.565" fill="#DDDDCD" rx="2.726" ry="2.746"/>
                </g>
            </g>
            <g fill-rule="nonzero">
                <path fill="#FF8900" d="M330 55.232h60.083v35.75H330z"/>
                <path fill="#FBFBEF" d="M382.063 88.437h-43.612c0-3.02-2.453-5.492-5.451-5.492V63.724c2.998 0 5.451-2.472 5.451-5.492h43.612c0 3.02 2.453 5.492 5.452 5.492v19.221c-2.999 0-5.452 2.471-5.452 5.492z"/>
                <g transform="translate(341 62.232)">
                    <ellipse cx="18.541" cy="10.619" fill="#FF8900" rx="10.541" ry="10.619"/>
                    <path fill="#FFF" d="M26.752 10.955h-2.415l.345-1.376h2.07a.346.346 0 0 0 .349-.343.346.346 0 0 0-.349-.344h-1.898l.42-1.677c.107-.433.162-.747.162-.934a.743.743 0 0 0-.242-.572.841.841 0 0 0-.602-.23c-.235 0-.411.055-.524.164a1.049 1.049 0 0 0-.274.426c-.06.182-.126.44-.195.766l-.468 2.057H20.51l-.448-1.63a13.83 13.83 0 0 0-.322-1.05 1.299 1.299 0 0 0-.379-.512c-.169-.147-.42-.222-.745-.222-.324 0-.578.073-.756.215a1.322 1.322 0 0 0-.408.538c-.093.231-.2.577-.32 1.028l-.444 1.633h-2.61l-.467-2.054c-.103-.476-.221-.839-.353-1.08-.038-.07-.152-.28-.641-.28a.83.83 0 0 0-.604.233.753.753 0 0 0-.24.57c0 .206.054.52.16.931l.422 1.68h-1.899a.346.346 0 0 0-.348.343c0 .19.156.344.348.344h2.071l.345 1.375h-2.416a.346.346 0 0 0-.348.344c0 .19.156.344.348.344h2.588l.75 2.993c.056.219.119.457.19.714.065.238.15.446.252.617a.971.971 0 0 0 .36.36c.146.083.342.125.582.125.296 0 .522-.069.692-.21.18-.148.306-.316.376-.499.08-.211.193-.568.333-1.06l.841-3.04h2.379l.831 3.041c.145.507.258.869.337 1.075.067.177.192.34.37.486.168.137.401.207.694.207.31 0 .547-.07.706-.21.172-.15.296-.327.367-.525.081-.225.186-.59.31-1.081l.75-2.993h2.588a.346.346 0 0 0 .349-.344.346.346 0 0 0-.349-.343zM22.975 9.58l-.313 1.375h-1.586L20.7 9.58h2.276zm-4.358-2.261l.43 1.573h-.865l.435-1.573zm-4.383 2.26h2.267l-.374 1.376h-1.58l-.313-1.375zm1.032 4.539l-.563-2.475h1.237l-.674 2.475zm2.345-3.163l.38-1.376h1.244l.376 1.376h-2zm4.333 3.158l-.679-2.47h1.24l-.561 2.47z"/>
                    <ellipse cx="2.736" cy="10.565" fill="#DDDDCD" rx="2.726" ry="2.746"/>
                    <ellipse cx="35.445" cy="10.565" fill="#DDDDCD" rx="2.726" ry="2.746"/>
                </g>
            </g>
            <path fill="#9797FB" fill-rule="nonzero" d="M0 187.232h60.083v35.75H0z"/>
            <path fill="#9797FB" fill-rule="nonzero" d="M57.24 222.961H2.726c-1.5 0-2.726-1.236-2.726-2.746V190.01c0-1.51 1.227-2.746 2.726-2.746H57.24c1.499 0 2.725 1.236 2.725 2.746v30.205c0 1.51-1.226 2.746-2.726 2.746z"/>
            <path fill="#FBFBEF" fill-rule="nonzero" d="M51.789 220.215H8.177c0-3.02-2.453-5.492-5.451-5.492v-19.221c2.998 0 5.451-2.472 5.451-5.492H51.79c0 3.02 2.453 5.492 5.451 5.492v19.221c-2.998 0-5.451 2.472-5.451 5.492z"/>
            <g transform="translate(10.892 194.547)">
                <ellipse cx="18.729" cy="10.619" fill="#9797FB" fill-rule="nonzero" rx="10.541" ry="10.619"/>
                <path fill="#FBFBEF" d="M14.774 6.45h7.916V4.995h-7.916zM14.774 9.07h7.916V7.613h-7.916zM14.774 11.397l3.792 5.239h2.072l-3.735-5.239z"/>
                <path fill="#FBFBEF" d="M14.774 4.992v1.493h2.408c.877 0 1.588 1.198 1.588 2.152 0 .954-.71 1.533-1.588 1.533h-2.408v1.485h2.742c1.533 0 2.776-1.36 2.776-3.027s-1.162-3.636-2.695-3.636h-2.823z"/>
                <ellipse cx="2.736" cy="10.565" fill="#DDDDCD" fill-rule="nonzero" rx="2.726" ry="2.746"/>
                <ellipse cx="35.445" cy="10.565" fill="#DDDDCD" fill-rule="nonzero" rx="2.726" ry="2.746"/>
            </g>
            <path fill="#F3B33A" fill-rule="nonzero" d="M331 318.232h60.083v35.75H331z"/>
            <path fill="#F3B33A" fill-rule="nonzero" d="M388.24 353.929h-54.514c-1.5 0-2.726-1.236-2.726-2.746v-30.205c0-1.51 1.227-2.746 2.726-2.746h54.515c1.499 0 2.725 1.235 2.725 2.746v30.205c0 1.51-1.226 2.746-2.726 2.746z"/>
            <path fill="#FBFBEF" fill-rule="nonzero" d="M382.789 351.215h-43.612c0-3.02-2.453-5.492-5.451-5.492v-19.221c2.998 0 5.451-2.472 5.451-5.492h43.612c0 3.02 2.453 5.492 5.451 5.492v19.221c-2.998 0-5.451 2.472-5.451 5.492z"/>
            <g transform="translate(341.892 325.547)">
                <ellipse cx="18.729" cy="10.619" fill="#F3B33A" fill-rule="nonzero" rx="10.541" ry="10.619"/>
                <path fill="#FBFBEF" d="M16.882 16.804l.005-1.86-3.62-.014.003-1.542 3.62.015.003-1.106-3.62-.015.004-1.54 2.64.01-3.21-5.14 3.222.013 2.398 4.131 2.385-4.112 3.239.014-3.235 5.113 2.658.011-.004 1.542-3.62-.015-.004 1.106 3.621.014-.004 1.542-3.62-.015-.005 1.86z"/>
                <ellipse cx="2.736" cy="10.565" fill="#DDDDCD" fill-rule="nonzero" rx="2.726" ry="2.746"/>
                <ellipse cx="35.445" cy="10.565" fill="#DDDDCD" fill-rule="nonzero" rx="2.726" ry="2.746"/>
            </g>
            <g>
                <path fill="#5FC38A" fill-rule="nonzero" d="M245.26 408.453h-48.819c-1.343 0-2.441-1.115-2.441-2.478v-27.259c0-1.363 1.098-2.478 2.441-2.478h48.82c1.342 0 2.44 1.115 2.44 2.478v27.259c0 1.363-1.098 2.478-2.44 2.478z"/>
                <path fill="#35CDC9" fill-rule="nonzero" d="M194 376.21h54v32.471h-54z"/>
                <path fill="#FBFBEF" fill-rule="nonzero" d="M240.378 405.975h-39.055c0-2.726-2.197-4.956-4.882-4.956v-17.347c2.685 0 4.882-2.23 4.882-4.956h39.055c0 2.726 2.197 4.956 4.882 4.956v17.347c-2.685 0-4.882 2.23-4.882 4.956z"/>
                <g transform="translate(203.754 382.81)">
                    <ellipse cx="16.772" cy="9.583" fill="#35CDC9" fill-rule="nonzero" rx="9.44" ry="9.583"/>
                    <path fill="#FBFBEF" d="M12.473 11.759l-.769.01-.005-1.426.497-.006v-.34c-.001-.125-.002-.264.013-.388l-.513.006-.005-1.425.769-.01c.7-2.177 2.7-3.565 5.157-3.595 2.427-.03 3.743 1.364 4.396 2.704l-2.226 1.127c-.335-.817-1.197-1.488-2.161-1.476-.98.012-1.792.471-2.272 1.205l3.18-.039.006 1.425-3.693.045a3.316 3.316 0 0 0-.014.388c0 .124 0 .232.016.34l3.693-.044.006 1.425-3.211.039c.5.753 1.316 1.208 2.31 1.196.966-.012 1.822-.704 2.15-1.53l2.236 1.058c-.644 1.325-1.95 2.797-4.376 2.827-2.472.03-4.482-1.34-5.184-3.516"/>
                    <ellipse cx="2.451" cy="9.535" fill="#DDDDCD" fill-rule="nonzero" rx="2.441" ry="2.478"/>
                    <ellipse cx="31.742" cy="9.535" fill="#DDDDCD" fill-rule="nonzero" rx="2.441" ry="2.478"/>
                </g>
            </g>
            <g>
                <path fill="#FA6769" fill-rule="nonzero" d="M47 56.232h60.083v35.75H47z"/>
                <path fill="#FA6769" fill-rule="nonzero" d="M104.24 91.929H49.726c-1.5 0-2.726-1.236-2.726-2.746V58.978c0-1.51 1.227-2.746 2.726-2.746h54.515c1.499 0 2.725 1.235 2.725 2.746v30.205c0 1.51-1.226 2.746-2.726 2.746z"/>
                <path fill="#FBFBEF" fill-rule="nonzero" d="M98.789 89.215H55.177c0-3.02-2.453-5.492-5.451-5.492V64.502c2.998 0 5.451-2.472 5.451-5.492H98.79c0 3.02 2.453 5.492 5.451 5.492v19.221c-2.998 0-5.451 2.472-5.451 5.492z"/>
                <g transform="translate(57.892 63.547)">
                    <ellipse cx="18.729" cy="10.619" fill="#FA6769" fill-rule="nonzero" rx="10.541" ry="10.619"/>
                    <path fill="#FBFBEF" d="M22.219 6.919s-.972-.473-2.019-.32c-1.539.224-1.483 1.873-.968 3.773.523 1.933-.252 3.063-.989 3.702h4.942v2.264h-8.41V14.87s2.693-.845 2.015-3.718c-.826-3.5-.463-5.179 1.53-6.23 2.132-1.125 4.36-.058 4.36-.058L22.22 6.92z"/>
                    <path fill="#FBFBEF" d="M15.3 11.669h6.833V9.594H15.3z"/>
                    <ellipse cx="2.736" cy="10.565" fill="#DDDDCD" fill-rule="nonzero" rx="2.726" ry="2.746"/>
                    <ellipse cx="35.445" cy="10.565" fill="#DDDDCD" fill-rule="nonzero" rx="2.726" ry="2.746"/>
                </g>
            </g>
            <g>
                <path fill="#5FC38A" fill-rule="nonzero" d="M190 .232h60.083v35.75H190z"/>
                <path fill="#FBFBEF" fill-rule="nonzero" d="M241.789 33.215h-43.612c0-3.02-2.453-5.492-5.451-5.492V8.502c2.998 0 5.451-2.472 5.451-5.492h43.612c0 3.02 2.453 5.492 5.451 5.492v19.221c-2.998 0-5.451 2.472-5.451 5.492z"/>
                <g transform="translate(200.892 7.547)">
                    <ellipse cx="18.729" cy="10.619" fill="#5FC38A" fill-rule="nonzero" rx="10.541" ry="10.619"/>
                    <path fill="#FBFBEF" d="M19.564 12.519l-.088 1.32c.367-.142.599-.41.622-.755.019-.285-.196-.451-.534-.565zm-1.762-3.474l.087-1.32c-.4.106-.59.38-.613.743-.02.297.179.466.526.577zm-.021 6.687c-1.64-.18-2.83-.788-3.71-1.614l1.41-1.98a4.774 4.774 0 0 0 2.303 1.257l.003-1.663c-1.593-.375-3.371-1.038-3.368-3.166.002-1.513 1.195-2.868 3.376-3.066l.002-1.409 1.717.033-.002 1.423c1.238.189 2.32.659 3.2 1.395l-1.456 1.905a4.865 4.865 0 0 0-1.747-.903l-.002 1.454c1.608.39 3.448 1.054 3.445 3.137-.002 1.798-1.226 3.033-3.454 3.23l-.002 1.363-1.717-.032.002-1.364z"/>
                    <ellipse cx="2.736" cy="10.565" fill="#DDDDCD" fill-rule="nonzero" rx="2.726" ry="2.746"/>
                    <ellipse cx="35.445" cy="10.565" fill="#DDDDCD" fill-rule="nonzero" rx="2.726" ry="2.746"/>
                </g>
            </g>
        </g>
    </g>
</svg>
